<mxfile host="app.diagrams.net" modified="2022-04-17T07:51:18.366Z" agent="5.0 (Windows NT 10.0; Win64; x64) AppleWebKit/537.36 (KHTML, like Gecko) Chrome/100.0.4896.88 Safari/537.36" etag="Hz4Wt_KEb1Y8iXvNXa8p" version="17.4.5" type="github">
  <diagram id="4_3KpBHNeJriLDCUcrOW" name="Page-1">
    <mxGraphModel dx="2844" dy="1524" grid="1" gridSize="10" guides="1" tooltips="1" connect="1" arrows="1" fold="1" page="1" pageScale="1" pageWidth="827" pageHeight="1169" math="0" shadow="0">
      <root>
        <mxCell id="0" />
        <mxCell id="1" parent="0" />
        <mxCell id="CsPo1RQA9-mQseL0Hiie-1" value="" style="rounded=0;whiteSpace=wrap;html=1;" vertex="1" parent="1">
          <mxGeometry width="830" height="1560" as="geometry" />
        </mxCell>
        <mxCell id="CsPo1RQA9-mQseL0Hiie-2" value="&lt;font style=&quot;font-size: 21px&quot;&gt;Logo&lt;/font&gt;" style="rounded=1;whiteSpace=wrap;html=1;" vertex="1" parent="1">
          <mxGeometry x="10" y="10" width="220" height="80" as="geometry" />
        </mxCell>
        <mxCell id="CsPo1RQA9-mQseL0Hiie-3" value="Navbar" style="rounded=1;whiteSpace=wrap;html=1;fontSize=21;" vertex="1" parent="1">
          <mxGeometry x="510" y="10" width="310" height="80" as="geometry" />
        </mxCell>
        <mxCell id="CsPo1RQA9-mQseL0Hiie-4" value="Welcome to Tasnim Jame Masjid" style="rounded=1;whiteSpace=wrap;html=1;fontSize=21;" vertex="1" parent="1">
          <mxGeometry x="104" y="100" width="620" height="70" as="geometry" />
        </mxCell>
        <mxCell id="CsPo1RQA9-mQseL0Hiie-5" value="&lt;font style=&quot;font-size: 28px&quot;&gt;Carousel&lt;/font&gt;" style="rounded=0;whiteSpace=wrap;html=1;fontSize=21;" vertex="1" parent="1">
          <mxGeometry x="20" y="190" width="790" height="250" as="geometry" />
        </mxCell>
        <mxCell id="CsPo1RQA9-mQseL0Hiie-6" value="Prayer section" style="rounded=0;whiteSpace=wrap;html=1;fontSize=28;" vertex="1" parent="1">
          <mxGeometry x="20" y="460" width="790" height="350" as="geometry" />
        </mxCell>
        <mxCell id="CsPo1RQA9-mQseL0Hiie-8" value="About section" style="rounded=0;whiteSpace=wrap;html=1;fontSize=28;" vertex="1" parent="1">
          <mxGeometry x="24" y="830" width="786" height="350" as="geometry" />
        </mxCell>
        <mxCell id="CsPo1RQA9-mQseL0Hiie-11" value="" style="edgeStyle=orthogonalEdgeStyle;rounded=0;orthogonalLoop=1;jettySize=auto;html=1;fontSize=28;" edge="1" parent="1" source="CsPo1RQA9-mQseL0Hiie-9">
          <mxGeometry relative="1" as="geometry">
            <mxPoint x="1040" y="515" as="targetPoint" />
          </mxGeometry>
        </mxCell>
        <mxCell id="CsPo1RQA9-mQseL0Hiie-9" value="" style="html=1;shadow=0;dashed=0;align=center;verticalAlign=middle;shape=mxgraph.arrows2.arrow;dy=0.6;dx=40;notch=0;fontSize=28;direction=west;" vertex="1" parent="1">
          <mxGeometry x="860" y="480" width="100" height="70" as="geometry" />
        </mxCell>
        <mxCell id="CsPo1RQA9-mQseL0Hiie-13" value="This is the design for the desktop version" style="rounded=1;whiteSpace=wrap;html=1;fontSize=28;" vertex="1" parent="1">
          <mxGeometry x="1050" y="450" width="240" height="150" as="geometry" />
        </mxCell>
        <mxCell id="CsPo1RQA9-mQseL0Hiie-14" value="Contact us section" style="rounded=0;whiteSpace=wrap;html=1;fontSize=28;" vertex="1" parent="1">
          <mxGeometry x="25" y="1200" width="785" height="350" as="geometry" />
        </mxCell>
      </root>
    </mxGraphModel>
  </diagram>
</mxfile>
